<?xml version="1.0" encoding="utf-8"?>
<!-- Generator: Adobe Illustrator 23.0.1, SVG Export Plug-In . SVG Version: 6.00 Build 0)  -->
<svg version="1.1" id="Layer_1" xmlns="http://www.w3.org/2000/svg" xmlns:xlink="http://www.w3.org/1999/xlink" x="0px" y="0px"
	 viewBox="0 0 1690 556" enable-background="new 0 0 1690 556" xml:space="preserve">
<g>
	<rect fill="#DBC691" width="532" height="556"/>
	<g>
		<path fill="#293E68" d="M503.063,20.398c-157.83,0-315.66,0.023-473.49-0.107c-0.308,0-0.602,0.002-0.885,0.009H23.07v9h0.007
			c0.133,166.595,0.109,333.19,0.126,499.784c0,1.925,0.232,3.85,0.361,5.851c15.261,0,29.995,0,45.242,0c0-2.648,0-4.946,0-7.244
			c0-125.997,0-251.995,0.002-377.992c0-1.666-0.179-3.372,0.125-4.984c0.172-0.916,1.143-2.389,1.778-2.402
			c8.233-0.163,16.47-0.108,25.192-0.108c0,79.141,0,157.369,0,236.458c4.788-2.631,8.666-5.229,12.899-6.964
			c4.724-1.936,6.039-4.842,6.03-9.902c-0.167-97.831-0.124-195.663-0.124-293.494c0-2.256,0-4.512,0-6.687
			c9.439,0,17.991,0,27.046,0c0,81.37,0,162.268,0,243.724c5.033-1.626,9.364-3.385,13.864-4.377
			c4.303-0.949,5.241-3.216,5.23-7.336c-0.136-48.165-0.087-96.331-0.087-144.497c0-2.118,0-4.236,0-6.688
			c9.187,0,17.741,0,26.858,0c0,34.346,0,68.428,0,103.268c54.311-10.985,107.994-10.613,162.099,1.14c0-35.315,0-69.738,0-104.4
			c9.043,0,17.597,0,26.769,0c0,2.452,0,4.577,0,6.701c0,41.832,0,83.665,0,125.497c0,7.5-0.09,15.002,0.089,22.498
			c0.033,1.38,0.83,3.55,1.842,3.962c5.343,2.174,10.868,3.901,17.111,6.053c0-82.287,0-163.839,0-245.703
			c9.053,0,17.481,0,26.821,0c0,2.731,0,5.027,0,7.323c0,98.33,0,196.66,0.001,294.99c0,1.667-0.133,3.353,0.08,4.993
			c0.137,1.06,0.5,2.535,1.263,2.997c5.631,3.409,11.388,6.61,18.072,10.429c0-80.621,0-160.156,0-239.783c9.117,0,17.55,0,26.715,0
			c0,131.004,0,261.706,0,392.487c13.953,0,27.166,0,40.445,0c0-171.617,0-342.838,0-514.497
			C506.682,20.398,504.873,20.398,503.063,20.398z"/>
		<path fill="#293E68" d="M346.121,365.458c-9.396-2.197-18.706-4.822-28.17-6.663c-19.128-3.721-38.388-7.176-57.96-6.14
			c-22.659,1.2-44.938,5.236-66.966,10.724c-4.088,1.019-5.496,2.593-5.482,6.955c0.167,53.128,0.106,106.257,0.119,159.386
			c0,1.758,0.149,3.516,0.235,5.406c54.002,0,107.433,0,161.314,0c0.168-1.112,0.348-1.747,0.348-2.383
			c0.02-54.295,0.006-108.589,0.091-162.884C349.654,367.116,348.555,366.027,346.121,365.458z"/>
		<path fill="#293E68" d="M344.774,317.055c-41.865-9.479-84.041-11.329-126.531-5.45c-10.168,1.407-20.234,3.56-30.394,5.379
			c0,8.042,0,15.331,0,23.748c53.945-17.13,107.542-15.961,161.746,1.441c0-7.215-0.225-13.038,0.079-18.834
			C349.876,319.505,348.714,317.947,344.774,317.055z"/>
		<path fill="#293E68" d="M349.344,293.005c0-7.65,0-14.428,0-21.53c-53.965-11.689-107.667-11.814-161.471-0.096
			c0,7.022,0,13.471,0,20.625C242.137,279.938,295.723,280.457,349.344,293.005z"/>
		<path fill="#293E68" d="M141.519,385.837c0.124,47.978,0.079,95.957,0.094,143.936c0.001,1.751,0.184,3.502,0.277,5.156
			c6.555,0,12.474,0,18.625,0c0-53.772,0-107.183,0-161.421c-5.061,1.949-9.59,3.935-14.278,5.418
			C142.615,380.072,141.51,382.068,141.519,385.837z"/>
		<path fill="#293E68" d="M394.031,382.836c-5.515-2.55-11.173-4.792-17.112-7.27c0,53.693,0,106.523,0,159.317
			c6.329,0,12.219,0,18.061,0c0.21-0.866,0.426-1.34,0.426-1.813c0.032-48.954,0.058-97.908,0.008-146.862
			C395.413,385.048,394.855,383.218,394.031,382.836z"/>
		<path fill="#293E68" d="M95.598,409.643c0.157,39.945,0.095,79.892,0.095,119.838c0,1.644,0,3.288,0,5.486
			c6.618,0,12.512,0,18.678,0c0-46.966,0-93.608,0-141.233c-5.101,2.824-9.46,5.461-14.019,7.69
			C96.759,403.18,95.582,405.606,95.598,409.643z"/>
		<path fill="#293E68" d="M440.458,407.386c-5.627-3.631-11.43-6.989-17.866-10.848c0,46.857,0,92.422,0,138.442
			c6.532,0,12.439,0,18.592,0c0.141-1.064,0.338-1.858,0.338-2.651c0.02-40.455,0.031-80.909-0.016-121.364
			C441.504,409.739,441.258,407.902,440.458,407.386z"/>
		<path fill="#293E68" d="M393.295,332.06c-5.208-2.102-10.53-3.923-16.78-6.192c0,8.189-0.06,15.324,0.072,22.455
			c0.018,0.944,0.795,2.378,1.593,2.722c5.445,2.35,10.989,4.469,17.268,6.968c0-8.195,0.081-15.621-0.094-23.041
			C395.331,333.958,394.249,332.445,393.295,332.06z"/>
		<path fill="#293E68" d="M143.854,330.403c-0.961,0.37-2.096,1.844-2.121,2.835c-0.18,7.239-0.097,14.485-0.097,22.56
			c6.452-2.454,12.147-4.576,17.787-6.832c0.586-0.234,1.205-1.266,1.213-1.935c0.087-7.199,0.054-14.399,0.054-22.547
			C154.4,326.659,149.074,328.393,143.854,330.403z"/>
	</g>
</g>
<g>
	<g>
		<path fill="#F4F2ED" d="M623.821,141.764c10.321,0,19.139,3.658,26.453,10.97c7.372,7.314,11.059,16.132,11.059,26.452v2.92
			h-23.09v-2.92c0-3.951-1.416-7.343-4.247-10.174s-6.224-4.247-10.174-4.247c-4.011,0-7.402,1.416-10.174,4.247
			c-2.831,2.831-4.247,6.223-4.247,10.174v51.932c0,4.012,1.416,7.402,4.247,10.174c2.771,2.831,6.163,4.247,10.174,4.247
			c3.951,0,7.343-1.416,10.174-4.247c2.831-2.772,4.247-6.163,4.247-10.174v-2.831h23.09v2.831c0,10.322-3.687,19.169-11.059,26.541
			c-7.314,7.314-16.132,10.971-26.453,10.971c-10.322,0-19.168-3.656-26.541-10.971c-7.314-7.372-10.97-16.218-10.97-26.541v-51.932
			c0-10.32,3.656-19.138,10.97-26.452C604.653,145.422,613.5,141.764,623.821,141.764z"/>
		<path fill="#F4F2ED" d="M726.223,141.764l30.168,126.865h-23.71l-4.07-17.34h-28.752l-4.158,17.34h-23.709l30.256-126.865H726.223
			z M705.345,228.287h17.694l-8.847-37.334L705.345,228.287z"/>
		<path fill="#F4F2ED" d="M813.054,141.764c10.321,0,19.167,3.658,26.541,10.97c7.313,7.314,10.97,16.132,10.97,26.452v2.92
			c0,10.322-3.658,19.168-10.97,26.541c-7.374,7.314-16.22,10.97-26.541,10.97h-15.836v49.012h-23.09V141.764H813.054z
			 M827.475,179.187c0-3.951-1.416-7.343-4.247-10.174s-6.224-4.247-10.174-4.247h-15.836v31.761h15.836
			c3.951,0,7.343-1.416,10.174-4.247s4.247-6.222,4.247-10.174V179.187z"/>
		<path fill="#F4F2ED" d="M868.302,141.764h23.09V268.63h-23.09V141.764z"/>
		<path fill="#F4F2ED" d="M984.15,141.764v23.002h-26.01V268.63H935.05V164.766h-25.921v-23.002H984.15z"/>
		<path fill="#F4F2ED" d="M1036.656,141.764l30.168,126.865h-23.71l-4.069-17.34h-28.753l-4.158,17.34h-23.71l30.257-126.865
			H1036.656z M1015.777,228.287h17.693l-8.847-37.334L1015.777,228.287z"/>
		<path fill="#F4F2ED" d="M1107.65,141.764v103.775h46.093v23.09h-69.184V141.764H1107.65z"/>
		<path fill="#F4F2ED" d="M1287.417,193.608h11.59v23.09h-11.59v51.932h-31.672c-10.322,0-19.169-3.656-26.541-10.971
			c-7.314-7.372-10.971-16.218-10.971-26.541v-2.831h0.089c0.708-8.905,4.158-16.602,10.351-23.09
			c-6.192-6.487-9.643-14.184-10.351-23.09h-0.089v-2.92c0-10.32,3.656-19.138,10.971-26.452c7.372-7.313,16.219-10.97,26.541-10.97
			h20.171v23.002h-20.171c-4.012,0-7.402,1.416-10.174,4.247c-2.831,2.831-4.247,6.223-4.247,10.174
			c0,4.012,1.416,7.432,4.247,10.263c2.771,2.773,6.162,4.158,10.174,4.158h8.67v-11.501h23.002V193.608z M1264.415,216.698h-8.67
			c-4.012,0-7.402,1.416-10.174,4.247c-2.831,2.831-4.247,6.223-4.247,10.174c0,4.012,1.416,7.402,4.247,10.174
			c2.771,2.831,6.162,4.247,10.174,4.247h8.67V216.698z"/>
		<path fill="#F4F2ED" d="M1401.009,141.764c10.32,0,19.138,3.658,26.452,10.97c7.372,7.314,11.059,16.132,11.059,26.452v2.92
			h-23.091v-2.92c0-3.951-1.415-7.343-4.246-10.174s-6.224-4.247-10.174-4.247c-4.012,0-7.402,1.416-10.174,4.247
			c-2.831,2.831-4.247,6.223-4.247,10.174v51.932c0,4.012,1.416,7.402,4.247,10.174c2.771,2.831,6.162,4.247,10.174,4.247
			c3.95,0,7.343-1.416,10.174-4.247c2.831-2.772,4.246-6.163,4.246-10.174v-2.831h23.091v2.831c0,10.322-3.687,19.169-11.059,26.541
			c-7.314,7.314-16.132,10.971-26.452,10.971c-10.322,0-19.169-3.656-26.541-10.971c-7.314-7.372-10.971-16.218-10.971-26.541
			v-51.932c0-10.32,3.656-19.138,10.971-26.452C1381.84,145.422,1390.687,141.764,1401.009,141.764z"/>
		<path fill="#F4F2ED" d="M1456.255,141.764h23.091V268.63h-23.091V141.764z"/>
		<path fill="#F4F2ED" d="M1572.104,141.764v23.002h-26.01V268.63h-23.091V164.766h-25.922v-23.002H1572.104z"/>
		<path fill="#F4F2ED" d="M1680.611,141.764l-33.885,82.984v43.881h-23.002v-43.881l-33.884-82.984h24.949l20.436,50.162
			l20.437-50.162H1680.611z"/>
		<path fill="#F4F2ED" d="M823.338,287.37v126.865h-23.09v-51.932h-28.841v51.932h-23.09V287.37h23.09v51.842h28.841V287.37H823.338
			z"/>
		<path fill="#F4F2ED" d="M885.833,287.37c10.321,0,19.139,3.656,26.453,10.969c7.372,7.314,11.059,16.133,11.059,26.453v51.932
			c0,10.322-3.687,19.17-11.059,26.541c-7.314,7.314-16.132,10.971-26.453,10.971c-10.322,0-19.168-3.656-26.541-10.971
			c-7.314-7.371-10.97-16.219-10.97-26.541v-51.932c0-10.32,3.656-19.139,10.97-26.453
			C866.664,291.027,875.511,287.37,885.833,287.37z M900.253,324.792c0-3.951-1.416-7.342-4.247-10.174
			c-2.831-2.83-6.224-4.246-10.174-4.246c-4.011,0-7.402,1.416-10.174,4.246c-2.831,2.832-4.247,6.223-4.247,10.174v51.932
			c0,4.012,1.416,7.402,4.247,10.174c2.771,2.832,6.163,4.246,10.174,4.246c3.951,0,7.343-1.414,10.174-4.246
			c2.831-2.771,4.247-6.162,4.247-10.174V324.792z"/>
		<path fill="#F4F2ED" d="M971.418,287.37v103.773h46.093v23.092h-69.184V287.37H971.418z"/>
		<path fill="#F4F2ED" d="M1080.006,287.37c10.32,0,19.138,3.656,26.452,10.969c7.372,7.314,11.059,16.133,11.059,26.453v51.932
			c0,10.322-3.687,19.17-11.059,26.541c-7.314,7.314-16.132,10.971-26.452,10.971h-37.512V287.37H1080.006z M1094.426,324.792
			c0-3.951-1.415-7.342-4.246-10.174c-2.831-2.83-6.224-4.246-10.174-4.246h-14.421v80.771h14.421c3.95,0,7.343-1.414,10.174-4.246
			c2.831-2.771,4.246-6.162,4.246-10.174V324.792z"/>
		<path fill="#F4F2ED" d="M1142.5,287.37h23.091v126.865H1142.5V287.37z"/>
		<path fill="#F4F2ED" d="M1265.597,287.37v126.865h-24.063l-27.868-68.211v68.211h-23.091V287.37h23.976l27.956,68.209V287.37
			H1265.597z"/>
		<path fill="#F4F2ED" d="M1328.092,287.37c10.32,0,19.138,3.656,26.452,10.969c7.372,7.314,11.059,16.133,11.059,26.453v2.92
			h-23.091v-2.92c0-3.951-1.415-7.342-4.246-10.174c-2.831-2.83-6.224-4.246-10.174-4.246c-4.012,0-7.402,1.416-10.174,4.246
			c-2.831,2.832-4.247,6.223-4.247,10.174v51.932c0,4.012,1.416,7.402,4.247,10.174c2.771,2.832,6.162,4.246,10.174,4.246h14.42
			v-28.84h-11.589v-23.092h34.68v75.023h-37.511c-10.322,0-19.169-3.656-26.541-10.971c-7.314-7.371-10.971-16.219-10.971-26.541
			v-51.932c0-10.32,3.656-19.139,10.971-26.453C1308.923,291.027,1317.77,287.37,1328.092,287.37z"/>
		<path fill="#F4F2ED" d="M1428.098,287.37c10.32,0,19.138,3.656,26.452,10.969c7.372,7.314,11.059,16.133,11.059,26.453v2.92
			h-23.091v-2.92c0-3.951-1.415-7.342-4.246-10.174c-2.831-2.83-6.224-4.246-10.174-4.246c-4.012,0-7.402,1.416-10.174,4.246
			c-2.831,2.832-4.247,6.223-4.247,10.174c0,4.012,1.416,7.432,4.247,10.262c2.771,2.773,6.162,4.158,10.174,4.158
			c10.32,0,19.138,3.688,26.452,11.059c7.372,7.314,11.059,16.133,11.059,26.453c0,10.322-3.687,19.17-11.059,26.541
			c-7.314,7.314-16.132,10.971-26.452,10.971c-10.322,0-19.169-3.656-26.541-10.971c-7.314-7.371-10.971-16.219-10.971-26.541v-2.83
			h23.091v2.83c0,4.012,1.416,7.402,4.247,10.174c2.771,2.832,6.162,4.246,10.174,4.246c3.95,0,7.343-1.414,10.174-4.246
			c2.831-2.771,4.246-6.162,4.246-10.174c0-3.951-1.415-7.344-4.246-10.174s-6.224-4.246-10.174-4.246
			c-10.322,0-19.169-3.656-26.541-10.971c-7.314-7.313-10.971-16.16-10.971-26.541c0-10.32,3.656-19.139,10.971-26.453
			C1408.929,291.027,1417.775,287.37,1428.098,287.37z"/>
	</g>
	<rect x="587" y="336.525" fill="#DBC691" width="148" height="21"/>
	<rect x="1509" y="336.525" fill="#DBC691" width="148" height="21"/>
</g>
<g>
</g>
<g>
</g>
<g>
</g>
<g>
</g>
<g>
</g>
<g>
</g>
<g>
</g>
<g>
</g>
<g>
</g>
<g>
</g>
<g>
</g>
<g>
</g>
<g>
</g>
<g>
</g>
<g>
</g>
</svg>
