<svg width="1024" height="673" viewBox="-1.87511 -1.87511 100.823 66.254" xmlns="http://www.w3.org/2000/svg" xmlns:xlink="http://www.w3.org/1999/xlink" id="svg2770" overflow="hidden"><defs id="defs2772"></defs><path d="M10.53 8.47412e-07C7.745 8.47412e-07 5.11375 1.08 3.1225 3.04 1.1125 5.0175 0.005 7.64625 0.005 10.4388L0 56.5975C0 56.6113 0.00125 62.5025 0.00125 62.5025L86.6263 62.5037C92.3875 62.5037 97.0725 57.82 97.0725 52.065L97.0725 45.4012C97.0725 45.4012 97.055 45.4188 97.055 45.42 97.06 45.3175 97.0725 45.2212 97.0725 45.1125L97.0725 19.6087 97.0713 19.6087 97.0713 8.47412e-07 10.53 8.47412e-07" id="path2648" fill="#FFFFFF"/><path d="M6.1175 59.3037 86.6263 59.3037C90.63 59.3037 93.8738 56.0638 93.8738 52.065L93.8725 35.675C50.0962 34.86 15.5737 53.6037 6.1175 59.3037" id="path2650" fill="#E6001D"/><path d="M10.545 3.215C6.54251 3.215 3.20125 6.43625 3.20125 10.4338L3.20125 56.59C11.5463 51.44 47.6575 31.0025 93.8575 31.84L93.8575 3.215 10.545 3.215ZM49.9825 11.1213 52.295 11.1213 58.8888 27.1838 55.6075 27.1838 54.2638 23.84 47.8262 23.84 46.42 27.1838 43.17 27.1838 49.9825 11.1213ZM26.0763 11.1525 28.17 11.1525 32.4825 21.4338 36.92 11.1525 39.045 11.1525 41.67 27.1838 38.5762 27.1838 37.17 17.465 32.8575 27.3713 32.0137 27.3713 27.8263 17.465 26.2325 27.1838 23.17 27.1838 26.0763 11.1525ZM16.3575 11.1838C18.08 11.1838 19.6612 11.7775 20.9825 12.9338L19.3888 15.0275C18.5875 14.1313 17.8175 13.7463 16.8263 13.7463 15.5763 13.7463 14.6075 14.53 14.6075 15.4963 14.6075 16.345 15.1737 16.7812 17.0138 17.465 18.7588 18.1012 19.4312 18.4688 20.1388 19.0588 21.0587 19.8375 21.545 20.98 21.545 22.3713 21.545 25.4613 19.3013 27.5588 16.045 27.5588 13.7813 27.5588 12.085 26.61 10.67 24.5588L12.6388 22.6525C13.3462 23.9963 14.5363 24.7463 15.9513 24.7463 17.3425 24.7463 18.3575 23.8013 18.3575 22.5275 18.3575 21.8913 18.08 21.335 17.5138 20.9338 17.2063 20.6987 16.6225 20.4675 15.3263 19.9963 12.4963 18.9813 11.4513 17.8213 11.4513 15.7463 11.4513 13.105 13.5275 11.1838 16.3575 11.1838ZM51.1075 15.715 48.8262 21.3713 53.295 21.3713 51.1075 15.715Z" id="path2652" fill="#005088"/></svg>